<svg xmlns="http://www.w3.org/2000/svg" width="28.163" height="28.155" viewBox="0 0 28.163 28.155">
  <path id="search" d="M25.16,14.4a10.775,10.775,0,1,0,7.613,3.147A10.733,10.733,0,0,0,25.16,14.4Zm-.014,1.673a8.946,8.946,0,0,1,6.408,2.665,9.113,9.113,0,0,1,.028,12.845,9.284,9.284,0,0,1-4.6,2.475,8.95,8.95,0,0,1-8.244-2.475,9.087,9.087,0,0,1,6.408-15.509Zm0,1.7a7.206,7.206,0,0,0-5.189,2.183A7.365,7.365,0,0,0,17.8,24.891a.835.835,0,0,0,.822.879h.028a.867.867,0,0,0,.851-.822,5.752,5.752,0,0,1,1.644-3.8,5.624,5.624,0,0,1,4-1.672.851.851,0,1,0,0-1.7ZM20.241,28.464a.851.851,0,1,0,.851.851A.851.851,0,0,0,20.241,28.464Zm13.713,4.678a.788.788,0,0,0-.585.255.822.822,0,0,0,0,1.191l.709.709a2.439,2.439,0,0,0-.255,1.106,2.551,2.551,0,0,0,.737,1.815l3.63,3.572A2.557,2.557,0,0,0,40,42.556a2.651,2.651,0,0,0,1.815-.737,2.55,2.55,0,0,0,0-3.6l-3.629-3.63a2.551,2.551,0,0,0-1.815-.737,2.439,2.439,0,0,0-1.106.255L34.56,33.4A.857.857,0,0,0,33.954,33.142Zm2.421,2.382a.772.772,0,0,1,.6.255l3.6,3.6a.842.842,0,0,1-1.191,1.191L35.779,37a.879.879,0,0,1-.255-.624.772.772,0,0,1,.255-.6A.816.816,0,0,1,36.374,35.524Z" transform="translate(-14.4 -14.4)" fill="#fff"/>
</svg>
